HIERARCHY
ROOT Pelvis
{
	OFFSET 0.000000 0.000000 0.000000
	CHANNELS 6 Xposition Yposition Zposition Xrotation Yrotation Zrotation
	JOINT LeftUpLeg_virtual
	{
		OFFSET 0.000000 0.000000 0.000000
		CHANNELS 3 Xrotation Yrotation Zrotation
		JOINT LeftUpLeg
		{
			OFFSET 18.735201 -5.666702 -4.541200
			CHANNELS 3 Xrotation Yrotation Zrotation
			JOINT LeftLeg
			{
				OFFSET -0.021200 -31.938179 0.493100
				CHANNELS 3 Xrotation Yrotation Zrotation
				JOINT LeftFoot
				{
					OFFSET 0.021200 -31.938179 -4.336299
					CHANNELS 3 Xrotation Yrotation Zrotation
					JOINT LeftToeBase
					{
						OFFSET 0.943001 -26.722000 15.023500
						CHANNELS 3 Xrotation Yrotation Zrotation
						End Site
						{
							OFFSET 0 0 0
						}
					}
				}
			}
		}
	}
	JOINT RightUpLeg_virtual
	{
		OFFSET 0.000000 0.000000 0.000000
		CHANNELS 3 Xrotation Yrotation Zrotation
		JOINT RightUpLeg
		{
			OFFSET -18.735201 -5.666702 -4.541200
			CHANNELS 3 Xrotation Yrotation Zrotation
			JOINT RightLeg
			{
				OFFSET 0.018946 -31.938133 0.493100
				CHANNELS 3 Xrotation Yrotation Zrotation
				JOINT RightFoot
				{
					OFFSET -0.018946 -31.938126 -4.336299
					CHANNELS 3 Xrotation Yrotation Zrotation
					JOINT RightToeBase
					{
						OFFSET -0.943001 -26.722004 15.023500
						CHANNELS 3 Xrotation Yrotation Zrotation
						End Site
						{
							OFFSET 0 0 0
						}
					}
				}
			}
		}
	}
	JOINT Hips_virtual
	{
		OFFSET 0.000000 0.000000 0.000000
		CHANNELS 3 Xrotation Yrotation Zrotation
		JOINT Hips
		{
			OFFSET -0.000000 -0.000000 -0.000000
			CHANNELS 3 Xrotation Yrotation Zrotation
			JOINT Spine
			{
				OFFSET 0.000000 10.199997 -0.299500
				CHANNELS 3 Xrotation Yrotation Zrotation
				JOINT Spine1
				{
					OFFSET 0.000000 11.900002 -1.516600
					CHANNELS 3 Xrotation Yrotation Zrotation
					JOINT Spine2
					{
						OFFSET 0.000000 13.600006 -2.842500
						CHANNELS 3 Xrotation Yrotation Zrotation
						JOINT Neck_virtual
						{
							OFFSET 0.000000 0.000000 0.000000
							CHANNELS 3 Xrotation Yrotation Zrotation
							JOINT Neck
							{
								OFFSET 0.000000 9.624100 -2.890100
								CHANNELS 3 Xrotation Yrotation Zrotation
								JOINT Head
								{
									OFFSET 0.000000 14.068802 -1.351900
									CHANNELS 3 Xrotation Yrotation Zrotation
									End Site
									{
										OFFSET 0 0 0
									}
								}
							}
						}
						JOINT LeftShoulder_virtual
						{
							OFFSET 0.000000 0.000000 0.000000
							CHANNELS 3 Xrotation Yrotation Zrotation
							JOINT LeftShoulder
							{
								OFFSET 15.263000 10.923401 -0.547700
								CHANNELS 3 Xrotation Yrotation Zrotation
								JOINT LeftArm
								{
									OFFSET 25.438599 -2.830597 -13.032500
									CHANNELS 3 Xrotation Yrotation Zrotation
									JOINT LeftForeArm
									{
										OFFSET 29.960503 0.000000 0.000000
										CHANNELS 3 Xrotation Yrotation Zrotation
										JOINT LeftHand
										{
											OFFSET 27.849251 0.000000 0.000000
											CHANNELS 3 Xrotation Yrotation Zrotation
											End Site
											{
												OFFSET 0 0 0
											}
										}
									}
								}
							}
						}
						JOINT RightShoulder_virtual
						{
							OFFSET 0.000000 0.000000 0.000000
							CHANNELS 3 Xrotation Yrotation Zrotation
							JOINT RightShoulder
							{
								OFFSET -15.263000 10.923401 -0.547700
								CHANNELS 3 Xrotation Yrotation Zrotation
								JOINT RightArm
								{
									OFFSET -25.438599 -2.830597 -13.032500
									CHANNELS 3 Xrotation Yrotation Zrotation
									JOINT RightForeArm
									{
										OFFSET -29.960503 0.000000 0.000000
										CHANNELS 3 Xrotation Yrotation Zrotation
										JOINT RightHand
										{
											OFFSET -27.849251 0.000000 0.000000
											CHANNELS 3 Xrotation Yrotation Zrotation
											End Site
											{
												OFFSET 0 0 0
											}
										}
									}
								}
							}
						}
					}
				}
			}
		}
	}
}
MOTION
Frames: 13
Frame Time: 0.03333333
0.743293 189.748444 -23.054092 0.000000 0.000000 0.000000 5.312288 -5.149279 -0.017397 -92.856811 13.215212 26.741263 92.209398 -0.422847 9.093657 10.090654 3.798517 -21.498929 0.000000 0.000000 0.000000 7.247498 -3.303190 -2.879565 -101.053981 14.214262 -19.847985 111.457793 -1.987145 2.254606 9.465762 -0.172187 29.982604 0.000000 0.000000 0.000000 5.324355 -2.987230 0.442009 -0.011947 1.008971 -2.257059 12.032763 -0.396622 -1.681729 14.370424 -1.439943 -1.207363 0.000000 0.000000 0.000000 13.284010 -1.633360 -0.581060 -4.041666 1.026799 -0.113678 0.000000 0.000000 0.000000 13.022881 -1.590723 -1.724186 -0.242513 -15.275641 24.238053 -69.793680 -17.857477 -10.900217 19.928422 -62.988011 47.523169 0.000000 0.000000 0.000000 14.011977 -1.025059 -0.925253 8.606454 20.906687 -12.927407 -63.236828 34.141370 14.801594 -14.994535 57.362169 -24.199208 0.000000 0.000000 0.000000 
1.001714 189.835678 -25.000542 0.000000 0.000000 0.000000 2.652238 -5.334497 -0.216392 -97.555756 10.369820 26.764006 93.448312 -2.381968 8.293637 7.080842 3.456233 -23.216264 0.000000 0.000000 0.000000 4.827721 -3.401390 -3.005280 -103.735410 11.265210 -19.683528 106.733406 -0.237963 1.945896 7.739130 0.136601 26.893532 0.000000 0.000000 0.000000 2.949461 -3.464766 0.291222 -0.257470 0.604184 -2.267095 13.996204 0.006173 -1.100828 17.121930 -1.332445 -0.882244 0.000000 0.000000 0.000000 16.496177 -1.581707 -0.462385 -4.176620 1.335839 -0.123666 0.000000 0.000000 0.000000 15.795337 -1.493155 -1.576549 0.912351 -16.511888 27.079429 -69.834552 -12.554712 -7.558135 11.835599 -65.092987 43.677793 0.000000 0.000000 0.000000 16.822293 -0.918005 -0.718671 9.082662 21.604151 -14.547512 -67.979042 38.312075 12.398945 -22.388809 56.891798 -19.392147 0.000000 0.000000 0.000000 
1.398002 189.694962 -26.616375 0.000000 0.000000 0.000000 0.187221 -5.580801 -0.283155 -99.698960 9.658333 26.135449 88.681612 -4.539313 6.833571 7.851506 3.763910 -22.439487 0.000000 0.000000 0.000000 2.421464 -3.784294 -3.219973 -102.622295 5.921027 -20.291054 95.377923 0.966930 2.281964 6.285460 0.227198 24.012283 0.000000 0.000000 0.000000 0.660524 -4.024738 0.133311 -0.381117 0.079859 -2.408059 15.091320 0.567360 -0.634416 19.324364 -1.006310 -0.629386 0.000000 0.000000 0.000000 19.252498 -1.320416 -0.433188 -4.146199 1.605032 -0.206893 0.000000 0.000000 0.000000 18.128123 -1.184128 -1.508153 2.034703 -17.522029 28.928091 -70.945148 -9.491927 -6.430871 1.623512 -65.910615 37.135448 0.000000 0.000000 0.000000 19.235800 -0.547383 -0.526061 9.343231 21.648230 -16.307276 -71.887727 42.094487 9.010421 -28.698375 54.264050 -14.851929 0.000000 0.000000 0.000000 
1.711854 189.283417 -27.650936 0.000000 0.000000 0.000000 -1.924981 -5.605293 -0.201562 -98.389073 11.088087 24.329416 78.267834 -6.496735 4.900006 10.498617 4.887545 -19.332022 0.000000 0.000000 0.000000 0.044583 -4.018604 -3.418321 -98.741361 -1.266823 -21.132020 78.512984 1.921060 2.969308 5.825069 1.033969 22.219852 0.000000 0.000000 0.000000 -1.693175 -4.143979 -0.030443 -0.398015 -0.669386 -2.572974 15.400984 1.128788 -0.339163 20.946276 -0.557370 -0.466726 0.000000 0.000000 0.000000 21.394330 -0.923636 -0.486358 -4.064365 1.806828 -0.330881 0.000000 0.000000 0.000000 19.913891 -0.730693 -1.516238 2.994851 -17.804437 30.467309 -73.333788 -9.532232 -6.364577 -10.596593 -62.700850 28.184731 0.000000 0.000000 0.000000 21.210237 -0.012192 -0.374816 9.636661 21.175762 -19.019710 -73.858496 44.101743 4.761721 -33.154486 49.385461 -11.541774 0.000000 0.000000 0.000000 
1.785085 188.403915 -28.091366 0.000000 0.000000 0.000000 -3.676599 -4.772089 0.065735 -93.851485 13.822582 21.245302 63.766967 -8.377180 2.721909 11.316759 6.186413 -15.180449 0.000000 0.000000 0.000000 -2.441674 -3.405824 -3.385321 -93.886722 -8.595134 -21.482849 60.196499 2.945370 3.274615 7.474016 2.837217 21.242399 0.000000 0.000000 0.000000 -4.111046 -3.537882 -0.066445 -0.549968 -1.383662 -2.655632 15.083296 1.530170 -0.183748 21.998868 -0.076928 -0.363847 0.000000 0.000000 0.000000 22.787799 -0.463858 -0.534676 -3.940042 1.938046 -0.426785 0.000000 0.000000 0.000000 21.179435 -0.251693 -1.537374 3.767163 -17.205110 32.195446 -76.289702 -11.799608 -6.451880 -20.604292 -54.638686 20.978462 0.000000 0.000000 0.000000 22.686963 0.574516 -0.271230 10.277679 20.376534 -23.200122 -73.368745 43.543313 -0.204785 -35.989776 44.075836 -9.413639 0.000000 0.000000 0.000000 
1.688328 186.565979 -27.849728 0.000000 0.000000 0.000000 -5.488787 -3.171515 0.555604 -87.912430 16.514772 17.701502 49.633294 -10.135489 0.296209 9.270285 6.927539 -10.556430 0.000000 0.000000 0.000000 -4.982029 -1.704266 -3.053199 -89.949500 -14.462186 -21.372191 47.284344 4.474415 3.081477 9.135182 4.974984 20.284871 0.000000 0.000000 0.000000 -6.668198 -2.287010 0.093307 -0.845382 -1.832635 -2.447937 14.524105 1.685227 -0.029612 22.610812 0.322421 -0.272963 0.000000 0.000000 0.000000 23.600735 -0.040011 -0.493214 -3.766457 2.004248 -0.436186 0.000000 0.000000 0.000000 21.958694 0.179519 -1.542594 4.270618 -15.767188 34.259010 -78.273879 -14.602425 -5.958275 -26.793205 -44.220779 16.744762 0.000000 0.000000 0.000000 23.642278 1.094723 -0.224308 11.212532 19.214975 -28.615605 -71.697725 40.156714 -4.933919 -38.013824 40.525216 -7.455127 0.000000 0.000000 0.000000 
1.243910 183.762482 -26.882156 0.000000 0.000000 0.000000 -7.840337 -1.138349 1.049028 -83.773978 18.375483 15.488163 42.003266 -11.467108 -2.208986 5.946238 7.146853 -5.739992 0.000000 0.000000 0.000000 -7.749405 0.448153 -2.582213 -88.772672 -18.208127 -21.782493 44.278238 5.988099 2.805277 8.032713 5.870639 18.403262 0.000000 0.000000 0.000000 -9.399202 -0.586185 0.409005 -1.132277 -1.987944 -2.270643 14.153722 1.650425 0.176817 22.930014 0.626761 -0.180949 0.000000 0.000000 0.000000 23.984892 0.301013 -0.363151 -3.535254 2.029878 -0.340539 0.000000 0.000000 0.000000 22.312357 0.501951 -1.505467 4.579631 -13.951383 36.547994 -78.174411 -16.383635 -4.674686 -30.276439 -34.335983 13.989928 0.000000 0.000000 0.000000 24.102617 1.439325 -0.231338 12.411449 17.807319 -34.667711 -70.082522 34.536373 -8.850267 -39.603534 39.162925 -5.366303 0.000000 0.000000 0.000000 
0.696859 180.278168 -25.298958 0.000000 0.000000 0.000000 -10.939394 0.600151 1.448416 -83.357623 19.203546 15.745217 43.809311 -12.732000 -4.131013 1.411842 6.820616 -0.755383 0.000000 0.000000 0.000000 -10.789995 2.289203 -2.077650 -90.755975 -19.881504 -23.144011 50.434930 6.760608 2.308050 3.727342 5.027483 15.163819 0.000000 0.000000 0.000000 -12.154410 0.798705 0.775155 -1.464008 -1.795291 -2.429406 14.061180 1.496813 0.446875 23.040462 0.836844 -0.111467 0.000000 0.000000 0.000000 24.071882 0.537403 -0.192102 -3.192850 2.029883 -0.161798 0.000000 0.000000 0.000000 22.355831 0.722809 -1.448074 4.790896 -12.301878 38.706918 -76.143741 -16.519140 -2.945422 -32.127782 -26.564976 11.533913 0.000000 0.000000 0.000000 24.195942 1.606383 -0.292235 13.726319 16.257341 -40.629172 -69.413969 27.717142 -10.745300 -40.750138 38.859214 -3.447429 0.000000 0.000000 0.000000 
0.137470 176.684067 -23.204247 0.000000 0.000000 0.000000 -14.434469 1.293584 1.493994 -86.003529 18.552385 17.816986 53.579959 -14.358355 -4.803538 -3.756571 5.828703 4.050356 0.000000 0.000000 0.000000 -13.736845 3.122919 -1.897967 -94.977394 -19.818327 -25.146952 62.155049 7.040516 1.538405 -1.710650 3.532281 11.104622 0.000000 0.000000 0.000000 -14.872590 1.482729 0.916975 -1.838350 -1.464387 -2.719178 14.277882 1.379293 0.761790 23.067053 0.979397 -0.099615 0.000000 0.000000 0.000000 24.037451 0.662876 -0.084417 -2.756959 2.014970 0.044825 0.000000 0.000000 0.000000 22.195352 0.861752 -1.422665 4.952889 -11.103056 40.437288 -73.002981 -15.339382 -1.373191 -32.691744 -21.227272 9.152444 0.000000 0.000000 0.000000 24.048471 1.644688 -0.382807 14.922338 14.801445 -45.718937 -69.637180 20.950627 -10.512815 -41.180433 38.215506 -2.082956 0.000000 0.000000 0.000000 
-0.269141 173.716583 -20.746273 0.000000 0.000000 0.000000 -17.851128 0.733734 0.948187 -89.733140 16.852023 20.605503 67.609427 -16.171125 -4.012523 -8.893397 4.353874 7.874391 0.000000 0.000000 0.000000 -16.536615 2.483523 -2.299658 -100.031652 -18.364282 -27.200364 75.341754 7.305172 0.679760 -5.598821 2.287966 7.440793 0.000000 0.000000 0.000000 -17.459364 1.309402 0.637361 -1.858146 -0.990548 -3.024563 14.520103 1.371844 1.030718 22.968284 1.105986 -0.141927 0.000000 0.000000 0.000000 23.827660 0.722113 -0.081288 -2.289624 1.981680 0.228259 0.000000 0.000000 0.000000 21.953485 0.947467 -1.401314 5.133304 -10.425210 41.662491 -69.870431 -13.682377 -0.568554 -32.247850 -17.467411 7.028336 0.000000 0.000000 0.000000 23.706332 1.629097 -0.476382 15.952643 13.790798 -49.497107 -69.927586 15.136401 -8.583925 -40.828887 36.503468 -1.526985 0.000000 0.000000 0.000000 
-0.558119 171.719070 -18.069881 0.000000 0.000000 0.000000 -20.776833 -0.754998 -0.140932 -92.874160 14.968553 23.734313 81.399353 -17.798962 -2.544754 -13.872813 2.394059 10.068378 0.000000 0.000000 0.000000 -19.039731 0.977883 -3.174831 -104.965596 -16.180440 -29.244302 86.765177 7.931703 -0.194505 -6.402288 1.665631 5.341118 0.000000 0.000000 0.000000 -19.846621 0.289037 -0.152329 -1.800431 -0.513063 -3.358969 14.499962 1.517882 1.204465 22.704758 1.217724 -0.209046 0.000000 0.000000 0.000000 23.433658 0.749477 -0.156853 -1.877357 1.918499 0.356918 0.000000 0.000000 0.000000 21.694684 1.014584 -1.368177 5.209816 -10.090825 42.341289 -67.301781 -12.486670 -0.543904 -31.060733 -15.157897 5.318669 0.000000 0.000000 0.000000 23.209598 1.626846 -0.534267 16.702886 13.340227 -51.838031 -69.749742 10.836959 -5.755746 -40.061781 34.205082 -1.360435 0.000000 0.000000 0.000000 
-0.777398 170.602844 -15.362030 0.000000 0.000000 0.000000 -23.061495 -2.500602 -1.615759 -95.448151 13.178541 27.058336 93.072119 -19.066222 -1.274115 -17.754150 0.622024 10.574495 0.000000 0.000000 0.000000 -21.161015 -0.710693 -4.381084 -109.284509 -13.912488 -31.540181 95.450657 9.113008 -0.854507 -5.885574 1.336467 4.573645 0.000000 0.000000 0.000000 -22.047422 -1.021971 -1.308174 -1.442904 -0.382439 -3.413614 14.130785 1.765685 1.268057 22.296464 1.314413 -0.256096 0.000000 0.000000 0.000000 22.825502 0.770790 -0.249091 -1.623329 1.819925 0.429118 0.000000 0.000000 0.000000 21.431139 1.045907 -1.300094 5.135819 -9.751149 42.545501 -65.310255 -12.009804 -1.095959 -29.356655 -14.809411 4.060972 0.000000 0.000000 0.000000 22.554709 1.667470 -0.534248 17.094816 13.490390 -52.786898 -68.951682 8.287904 -3.038784 -39.258490 32.381162 -1.042779 0.000000 0.000000 0.000000 
-0.881652 170.135132 -12.645557 0.000000 0.000000 0.000000 -24.826752 -3.918929 -3.109375 -98.223318 11.602018 30.616576 102.929209 -19.901790 -0.520907 -20.256359 -0.255263 10.504862 0.000000 0.000000 0.000000 -22.981505 -2.068905 -5.583079 -112.552140 -12.053179 -34.262995 101.598203 10.672962 -0.767348 -7.060028 0.835047 4.543502 0.000000 0.000000 0.000000 -23.969791 -2.216114 -2.490060 -0.864705 -0.504297 -3.211107 13.440185 2.035696 1.217623 21.749277 1.372358 -0.254417 0.000000 0.000000 0.000000 21.988648 0.789417 -0.302526 -1.570432 1.677606 0.464807 0.000000 0.000000 0.000000 21.179078 1.050781 -1.212254 4.880082 -9.222200 42.393270 -63.690100 -12.121626 -2.196125 -27.589484 -16.757709 3.129689 0.000000 0.000000 0.000000 21.822702 1.711077 -0.504419 17.120759 14.069642 -52.568145 -67.643673 7.059124 -1.003353 -38.627547 31.891478 -0.346982 0.000000 0.000000 0.000000 
